<svg width="56" height="71" viewBox="0 0 56 71" fill="none" xmlns="http://www.w3.org/2000/svg">
<g filter="url(#filter0_d_59_244)">
<path d="M4 24.5581C4 10.9951 14.7452 0 28 0C41.2548 0 52 10.9951 52 24.5581C52 31.8297 48.9087 38.3654 44.0045 42.8588C42.3699 44.3565 41.159 45.4661 40.3008 46.2712C39.8717 46.6738 39.5436 46.9882 39.3015 47.2296C39.1808 47.3499 39.0885 47.4451 39.0197 47.5188C38.9856 47.5554 38.96 47.5838 38.9414 47.605L38.9249 47.6242C38.9177 47.6327 38.9146 47.6366 38.9146 47.6366C38.1577 48.5923 37.9939 48.8389 37.8964 49.0623C37.7988 49.2857 37.7286 49.575 37.5376 50.7895C37.4623 51.269 37.4545 52.0902 37.4545 54.3256V54.4214C37.4546 55.7306 37.4546 56.8598 37.3726 57.7865C37.2858 58.7664 37.0936 59.7367 36.5776 60.6512C36.0031 61.6693 35.1768 62.5148 34.1818 63.1027C33.2881 63.6307 32.3399 63.8273 31.3823 63.9161C30.4767 64.0001 29.3732 64.0001 28.0938 64H27.9062C26.6268 64.0001 25.5233 64.0001 24.6177 63.9161C23.6601 63.8273 22.7119 63.6307 21.8182 63.1027C20.8232 62.5148 19.9969 61.6693 19.4224 60.6512C18.9064 59.7367 18.7142 58.7664 18.6274 57.7865C18.5454 56.8599 18.5454 55.7307 18.5455 54.4216V54.4215L18.5455 54.3256C18.5455 52.0902 18.5377 51.269 18.4624 50.7895C18.2714 49.575 18.2012 49.2857 18.1036 49.0623C18.0061 48.8389 17.8423 48.5923 17.0854 47.6366L17.0749 47.624L17.0586 47.605C17.04 47.5838 17.0144 47.5554 16.9803 47.5188C16.9116 47.4451 16.8192 47.3499 16.6985 47.2296C16.4564 46.9882 16.1283 46.6738 15.6992 46.2712C14.841 45.4661 13.6301 44.3565 11.9955 42.8588C7.09128 38.3654 4 31.8297 4 24.5581Z" fill="url(#paint0_linear_59_244)"/>
<path d="M24.1544 37.1987C23.4907 36.0513 22.0226 35.6592 20.8752 36.3229C19.7279 36.9866 19.3358 38.4548 19.9995 39.6021C21.13 41.5564 22.9954 43.0393 25.2207 43.669V48.0004C25.2207 49.3259 26.2952 50.4004 27.6207 50.4004C28.9462 50.4004 30.0207 49.3259 30.0207 48.0004V43.669C32.2461 43.0393 34.1115 41.5564 35.242 39.6021C35.9057 38.4548 35.5137 36.9866 34.3663 36.3229C33.219 35.6592 31.7508 36.0513 31.0871 37.1987C30.3919 38.4005 29.0983 39.2004 27.6207 39.2004C26.1432 39.2004 24.8497 38.4005 24.1544 37.1987Z" fill="white"/>
<path d="M22.927 56.5585H33.0714C33.0619 56.8687 33.0476 57.1399 33.026 57.3838C32.9666 58.054 32.8665 58.2974 32.7978 58.419C32.6064 58.7584 32.3309 59.0402 31.9992 59.2362C31.8804 59.3064 31.6426 59.4089 30.9876 59.4696C30.3027 59.5331 29.3988 59.5353 27.9992 59.5353C26.5996 59.5353 25.6958 59.5331 25.0109 59.4696C24.3559 59.4089 24.1181 59.3064 23.9992 59.2362C23.6676 59.0402 23.3921 58.7584 23.2006 58.419C23.132 58.2974 23.0319 58.054 22.9725 57.3838C22.9509 57.1399 22.9366 56.8687 22.927 56.5585Z" fill="white"/>
</g>
<defs>
<filter id="filter0_d_59_244" x="0.8" y="0" width="54.4" height="70.4" filterUnits="userSpaceOnUse" color-interpolation-filters="sRGB">
<feFlood flood-opacity="0" result="BackgroundImageFix"/>
<feColorMatrix in="SourceAlpha" type="matrix" values="0 0 0 0 0 0 0 0 0 0 0 0 0 0 0 0 0 0 127 0" result="hardAlpha"/>
<feOffset dy="3.2"/>
<feGaussianBlur stdDeviation="1.6"/>
<feComposite in2="hardAlpha" operator="out"/>
<feColorMatrix type="matrix" values="0 0 0 0 0 0 0 0 0 0 0 0 0 0 0 0 0 0 0.25 0"/>
<feBlend mode="normal" in2="BackgroundImageFix" result="effect1_dropShadow_59_244"/>
<feBlend mode="normal" in="SourceGraphic" in2="effect1_dropShadow_59_244" result="shape"/>
</filter>
<linearGradient id="paint0_linear_59_244" x1="32.8" y1="60.8" x2="15.2" y2="5.2" gradientUnits="userSpaceOnUse">
<stop stop-color="#0B2F9F"/>
<stop offset="0.713542" stop-color="#2958EC"/>
<stop offset="1" stop-color="white"/>
</linearGradient>
</defs>
</svg>
