<svg width="28" height="28" viewBox="0 0 28 28" fill="none" xmlns="http://www.w3.org/2000/svg">
<path d="M10.6293 1.68042C10.2884 1.97094 10.1179 2.11621 9.93589 2.23823C9.51854 2.51796 9.04984 2.7121 8.55694 2.80941C8.34191 2.85186 8.11865 2.86968 7.67211 2.90531L7.6721 2.90532C6.55017 2.99485 5.9892 3.03961 5.52119 3.20492C4.43871 3.58726 3.58726 4.43871 3.20492 5.52119C3.03961 5.9892 2.99485 6.55017 2.90532 7.6721L2.90531 7.67211C2.86968 8.11865 2.85186 8.34191 2.80941 8.55694C2.7121 9.04984 2.51796 9.51854 2.23823 9.93589C2.11621 10.1179 1.97094 10.2884 1.6804 10.6293L1.68038 10.6294C0.950368 11.486 0.585346 11.9143 0.371302 12.3621C-0.123767 13.3979 -0.123767 14.6021 0.371302 15.6379C0.585348 16.0857 0.950358 16.514 1.68038 17.3706L1.68039 17.3707C1.9709 17.7115 2.11621 17.8821 2.23823 18.0641C2.51796 18.4815 2.7121 18.9502 2.80941 19.4431C2.85186 19.6581 2.86968 19.8814 2.90531 20.3279L2.90532 20.3279C2.99485 21.4498 3.03961 22.0108 3.20492 22.4788C3.58726 23.5613 4.43871 24.4127 5.52119 24.7951C5.9892 24.9604 6.55016 25.0052 7.67206 25.0947L7.67211 25.0947C8.11865 25.1303 8.34192 25.1481 8.55694 25.1906C9.04984 25.2879 9.51854 25.482 9.93588 25.7618C10.1179 25.8838 10.2884 26.0291 10.6294 26.3196C11.486 27.0496 11.9143 27.4147 12.3622 27.6287C13.3979 28.1238 14.6021 28.1238 15.6379 27.6287C16.0857 27.4147 16.514 27.0496 17.3706 26.3196C17.7116 26.0291 17.8821 25.8838 18.0641 25.7618C18.4815 25.482 18.9502 25.2879 19.4431 25.1906C19.6581 25.1481 19.8814 25.1303 20.3279 25.0947L20.3279 25.0947C21.4498 25.0052 22.0108 24.9604 22.4788 24.7951C23.5613 24.4127 24.4127 23.5613 24.7951 22.4788C24.9604 22.0108 25.0052 21.4498 25.0947 20.3279L25.0947 20.3279V20.3279C25.1303 19.8813 25.1481 19.6581 25.1906 19.4431C25.2879 18.9502 25.482 18.4815 25.7618 18.0641C25.8838 17.8821 26.0291 17.7116 26.3196 17.3706C27.0496 16.514 27.4147 16.0857 27.6287 15.6379C28.1238 14.6021 28.1238 13.3979 27.6287 12.3622C27.4147 11.9143 27.0496 11.486 26.3196 10.6294C26.0291 10.2884 25.8838 10.1179 25.7618 9.93588C25.482 9.51854 25.2879 9.04984 25.1906 8.55694C25.1481 8.34192 25.1303 8.11865 25.0947 7.67211L25.0947 7.67206C25.0052 6.55016 24.9604 5.9892 24.7951 5.52119C24.4127 4.43871 23.5613 3.58726 22.4788 3.20492C22.0108 3.03961 21.4498 2.99485 20.3279 2.90532L20.3279 2.90531C19.8814 2.86968 19.6581 2.85186 19.4431 2.80941C18.9502 2.7121 18.4815 2.51796 18.0641 2.23823C17.882 2.11621 17.7116 1.97093 17.3706 1.68038C16.514 0.950359 16.0857 0.585348 15.6379 0.371302C14.6021 -0.123767 13.3979 -0.123767 12.3621 0.371302C11.9143 0.585346 11.486 0.950366 10.6294 1.68038L10.6293 1.68042Z" fill="url(#paint0_linear_59_220)"/>
<path d="M20.123 11.0081C20.5679 10.5631 20.5679 9.84168 20.123 9.39671C19.678 8.95175 18.9566 8.95175 18.5116 9.39671L11.7213 16.1871L9.48854 13.9543C9.04358 13.5094 8.32215 13.5094 7.87718 13.9543C7.43222 14.3993 7.43222 15.1207 7.87718 15.5657L10.9156 18.6041C11.3606 19.0491 12.082 19.0491 12.527 18.6041L20.123 11.0081Z" fill="white"/>
<defs>
<linearGradient id="paint0_linear_59_220" x1="23.625" y1="3.85" x2="4.55" y2="22.05" gradientUnits="userSpaceOnUse">
<stop stop-color="#2958EC"/>
<stop offset="1" stop-color="#FF5DE5"/>
</linearGradient>
</defs>
</svg>
